<?xml version="1.0" encoding="UTF-8" standalone="no"?>
<svg width="130px" height="130px" viewBox="0 0 130 130" version="1.1" xmlns="http://www.w3.org/2000/svg" xmlns:xlink="http://www.w3.org/1999/xlink">
    <title>delete</title>
    <desc></desc>
    <defs></defs>
    <g id="backspace-empty" sketch:type="MSArtboardGroup">
        <path d="M98.1635781,41.9259943 C96.9114531,40.6610795 95.316625,40 93.5136719,40 L51.625,40 C48.2073906,40 45.4772969,41.3355114 43.5100937,44.0399148 L28,64.9911932 L43.525,85.8048295 L43.5503125,85.837642 L43.5761875,85.8705966 C44.5470625,87.1284091 45.6045625,88.1008523 46.8091563,88.7707386 C48.2335469,89.5630682 49.8538281,90 51.625,90 L93.53125,90 C97.2143594,90 100,86.8384943 100,83.0397727 L100,46.6761364 C100,44.8549716 99.4158437,43.190767 98.1635781,41.9259943 L98.1635781,41.9259943 Z M95.5,83.0397727 C95.5,84.2950284 94.7739531,85.4545455 93.53125,85.4545455 L51.625,85.4545455 C49.4921406,85.4545455 48.2031719,84.5076705 47.125,83.1107955 L33.625,65 L47.125,46.7559659 C48.4609375,44.909375 50.1016094,44.5454545 51.625,44.5454545 L93.4609375,44.5454545 C94.7036406,44.5454545 95.5,45.4208807 95.5,46.6761364 L95.5,83.0397727 L95.5,83.0397727 Z M86.1402813,75.8390625 C86.3551563,76.0535511 86.4738438,76.3450284 86.4738438,76.650142 C86.4738438,76.9556818 86.3551563,77.2471591 86.1402813,77.4607955 L83.0714219,80.5723011 C82.8499375,80.7975852 82.5616563,80.9090909 82.271125,80.9090909 C81.9798906,80.9090909 81.6892188,80.7975852 81.4702656,80.5723011 L70.7504219,69.7113636 L60.0305781,80.5723011 C59.8114844,80.7975852 59.5208125,80.9090909 59.2297188,80.9090909 C58.9391875,80.9090909 58.6507656,80.7975852 58.4292813,80.5723011 L55.3602813,77.4607955 C55.1455469,77.2471591 55.0265781,76.9556818 55.0265781,76.650142 C55.0265781,76.3450284 55.1455469,76.0535511 55.3602813,75.8390625 L66.1231563,65 L55.331875,54.162358 C54.8894688,53.7144886 54.8894688,52.9872159 55.331875,52.5392045 L58.3984844,49.4257102 C58.6116719,49.2110795 58.8979844,49.0909091 59.1994844,49.0909091 C59.5021094,49.0909091 59.7885625,49.2112216 59.9997813,49.4257102 L70.7502813,60.1548295 L81.5006406,49.4257102 C81.7121406,49.2110795 81.9985938,49.0909091 82.3012188,49.0909091 C82.6025781,49.0909091 82.8888906,49.2112216 83.1020781,49.4257102 L86.1686875,52.5392045 C86.6110938,52.9870739 86.6110938,53.7143466 86.1686875,54.162358 L75.377125,65 L86.1402813,75.8390625 L86.1402813,75.8390625 Z" sketch:type="MSShapeGroup"></path>
    </g>
</svg>

