<?xml version="1.0" encoding="UTF-8" standalone="no"?>
<svg width="130px" height="130px" viewBox="0 0 130 130" version="1.1" xmlns="http://www.w3.org/2000/svg" xmlns:xlink="http://www.w3.org/1999/xlink">
    <title>Submit</title>
    <desc></desc>
    <defs></defs>
    <g id="Page-1"stroke-width="1" fill-rule="evenodd">
        <g id="Artboard-2">
            <g id="icon" transform="translate(33.000000, 33.000000)">
                <path d="M31.9982857,0 C18.3532857,0 6.70485714,8.54342857 2.10385714,20.5714286 L7.05228571,20.5714286 C8.39457143,17.6451429 10.2604286,14.95 12.6048571,12.6054286 C17.7852857,7.42471429 24.6727143,4.57142857 31.9982857,4.57142857 C39.3248571,4.57142857 46.2131429,7.42471429 51.3941429,12.6055714 C56.5752857,17.7864286 59.4285714,24.6741429 59.4285714,32 C59.4285714,39.3264286 56.5752857,46.2144286 51.3944286,51.395 C46.2134286,56.5755714 39.325,59.4285714 31.9982857,59.4285714 C24.6724286,59.4285714 17.785,56.5755714 12.6047143,51.3951429 C10.2601429,49.0505714 8.39428571,46.3551429 7.05171429,43.4285714 L2.10357143,43.4285714 C6.70442857,55.4572857 18.353,64 31.9984286,64 C49.6718571,64 64,49.6735714 64,32 C64,14.3282857 49.6718571,0 31.9982857,0 L31.9982857,0 Z" id="Shape"></path>
                <polygon id="submit" points="24.9804286 41.6975714 28.2128571 44.93 41.1428571 32 28.2128571 19.07 24.9802857 22.3025714 32.3921429 29.7142857 0 29.7142857 0 34.2857143 32.3921429 34.2857143"></polygon>
            </g>
        </g>
    </g>
</svg>
